<?xml version="1.0" encoding="iso-8859-1"?>
<!-- Generator: Adobe Illustrator 19.0.0, SVG Export Plug-In . SVG Version: 6.00 Build 0)  -->
<svg version="1.1" id="Layer_1" xmlns="http://www.w3.org/2000/svg" xmlns:xlink="http://www.w3.org/1999/xlink" x="0px" y="0px"
	 viewBox="0 0 496 496" style="enable-background:new 0 0 496 496;" xml:space="preserve">
<circle style="fill:#19AFBF;" cx="257.6" cy="242.4" r="212.8"/>
<path style="fill:#0E94AA;" d="M107.2,92C190.4,8.8,324.8,8.8,408,92s83.2,217.6,0,300.8"/>
<path style="fill:#DCF9F6;" d="M294.4,188.8c0-53.6-44-97.6-98.4-97.6c-38.4,0-71.2,21.6-87.2,53.6c-3.2-0.8-7.2-1.6-11.2-1.6
	c-25.6,0-46.4,20.8-46.4,46.4c0,0.8,0,2.4,0,3.2C18.4,196,0,225.6,0,261.6v4.8C0,304,30.4,336,68.8,336h156
	c37.6,0,71.2-32,71.2-70.4V244C296,226.4,294.4,207.2,294.4,188.8z"/>
<path style="fill:#BDE5E1;" d="M294.4,201.6c0-53.6-44-97.6-98.4-97.6c-38.4,0-71.2,21.6-87.2,53.6c-3.2-0.8-7.2-1.6-11.2-1.6
	c-25.6,0-46.4,20.8-46.4,46.4c0,0.8,0,2.4,0,3.2c-32.8,4-51.2,20-51.2,56v4.8C0,304,30.4,336,68.8,336h156c37.6,0,71.2-32,71.2-70.4
	V244C296,226.4,294.4,220,294.4,201.6z"/>
<path style="fill:#B1DDD9;" d="M72,336h152.8c37.6,0,71.2-32,71.2-70.4V244c0-17.6,0-23.2,0-41.6"/>
<g>
	<path style="fill:#DCF9F6;" d="M153.6,203.2c-3.2-0.8-5.6-1.6-8.8-1.6c-18.4,0-32.8,14.4-32.8,32.8c0,3.2,0.8,6.4,1.6,8.8
		C116,222.4,132.8,205.6,153.6,203.2z"/>
	<path style="fill:#DCF9F6;" d="M210.4,172.8c-4-1.6-8-3.2-12-4c-24-4.8-47.2,12-52,36c-0.8,4-0.8,8.8,0,12.8
		C154.4,189.6,180.8,171.2,210.4,172.8z"/>
</g>
<g>
	<circle style="fill:#B1DDD9;" cx="32.8" cy="256" r="3.2"/>
	<circle style="fill:#B1DDD9;" cx="41.6" cy="231.2" r="4.8"/>
	<circle style="fill:#B1DDD9;" cx="97.6" cy="184.8" r="2.4"/>
</g>
<g>
	<circle style="fill:#DCF9F6;" cx="143.2" cy="160" r="4.8"/>
	<circle style="fill:#DCF9F6;" cx="181.6" cy="120" r="2.4"/>
	<circle style="fill:#DCF9F6;" cx="203.2" cy="127.2" r="7.2"/>
	<path style="fill:#DCF9F6;" d="M256.8,216c0-44,36-79.2,80-79.2c31.2,0,57.6,17.6,71.2,43.2c3.2-0.8,6.4-0.8,8.8-0.8
		c20.8,0,37.6,16.8,37.6,37.6c0,0.8,0,1.6,0,2.4c27.2,3.2,41.6,26.4,41.6,55.2v4c0,30.4-24.8,56.8-56,56.8H313.6
		c-30.4,0-57.6-26.4-57.6-56.8v-17.6C256,247.2,256.8,231.2,256.8,216z"/>
</g>
<path style="fill:#BDE5E1;" d="M256.8,227.2c0-44,36-79.2,80-79.2c31.2,0,57.6,17.6,71.2,43.2c3.2-0.8,6.4-0.8,8.8-0.8
	c20.8,0,37.6,16.8,37.6,37.6c0,0.8,0,1.6,0,2.4c27.2,3.2,41.6,16,41.6,44.8v4c0,30.4-24.8,56.8-56,56.8H313.6
	c-30.4,0-57.6-26.4-57.6-56.8v-17.6C256,247.2,256.8,241.6,256.8,227.2z"/>
<path style="fill:#B1DDD9;" d="M440,336H313.6c-30.4,0-57.6-26.4-57.6-56.8v-17.6c0-14.4,0.8-18.4,0.8-33.6"/>
<g>
	<path style="fill:#DCF9F6;" d="M371.2,228c2.4-0.8,4.8-0.8,7.2-0.8c14.4,0,26.4,12,26.4,26.4c0,2.4-0.8,4.8-0.8,7.2
		C402.4,243.2,388.8,230.4,371.2,228z"/>
	<path style="fill:#DCF9F6;" d="M325.6,204c3.2-1.6,6.4-2.4,9.6-3.2c20-3.2,38.4,9.6,42.4,28.8c0.8,3.2,0.8,7.2,0,10.4
		C370.4,216.8,348.8,202.4,325.6,204z"/>
</g>
<g>
	<circle style="fill:#B1DDD9;" cx="468.8" cy="271.2" r="2.4"/>
	<circle style="fill:#B1DDD9;" cx="462.4" cy="251.2" r="4"/>
	<circle style="fill:#B1DDD9;" cx="416.8" cy="213.6" r="1.6"/>
</g>
<g>
	<circle style="fill:#DCF9F6;" cx="380" cy="192.8" r="4"/>
	<circle style="fill:#DCF9F6;" cx="348.8" cy="160.8" r="1.6"/>
	<circle style="fill:#DCF9F6;" cx="331.2" cy="166.4" r="5.6"/>
</g>
<rect x="208" y="280" style="fill:#B1DDD9;" width="120" height="56"/>
<path style="fill:#5EE0EA;" d="M73.6,366.4c0,4.8-4,8.8-9.6,8.8s-9.6-4-9.6-8.8s4-20,9.6-20C68.8,346.4,73.6,361.6,73.6,366.4z"/>
<path style="fill:#30B9D8;" d="M64,346.4c5.6,0,9.6,15.2,9.6,20s-4,8.8-9.6,8.8"/>
<path style="fill:#5EE0EA;" d="M116.8,366.4c0,4.8-4,8.8-9.6,8.8s-9.6-4-9.6-8.8s4-20,9.6-20C112,346.4,116.8,361.6,116.8,366.4z"/>
<path style="fill:#30B9D8;" d="M107.2,346.4c5.6,0,9.6,15.2,9.6,20s-4,8.8-9.6,8.8"/>
<path style="fill:#5EE0EA;" d="M160,366.4c0,4.8-4,8.8-9.6,8.8s-9.6-4-9.6-8.8s4-20,9.6-20S160,361.6,160,366.4z"/>
<path style="fill:#30B9D8;" d="M150.4,346.4c5.6,0,9.6,15.2,9.6,20s-4,8.8-9.6,8.8"/>
<path style="fill:#5EE0EA;" d="M203.2,366.4c0,4.8-4,8.8-9.6,8.8s-9.6-4-9.6-8.8s4-20,9.6-20C198.4,346.4,203.2,361.6,203.2,366.4z"
	/>
<path style="fill:#30B9D8;" d="M193.6,346.4c4.8,0,9.6,15.2,9.6,20s-4,8.8-9.6,8.8"/>
<path style="fill:#5EE0EA;" d="M246.4,366.4c0,4.8-4,8.8-9.6,8.8s-9.6-4-9.6-8.8s4-20,9.6-20C241.6,346.4,246.4,361.6,246.4,366.4z"
	/>
<path style="fill:#30B9D8;" d="M236.8,346.4c5.6,0,9.6,15.2,9.6,20s-4,8.8-9.6,8.8"/>
<path style="fill:#5EE0EA;" d="M73.6,412c0,4.8-4,8.8-9.6,8.8s-9.6-4-9.6-8.8s4-20,9.6-20C68.8,392,73.6,407.2,73.6,412z"/>
<path style="fill:#30B9D8;" d="M64,392c5.6,0,9.6,15.2,9.6,20s-4.8,8.8-9.6,8.8"/>
<path style="fill:#5EE0EA;" d="M116.8,412c0,4.8-4,8.8-9.6,8.8s-9.6-4-9.6-8.8s4-20,9.6-20C112,392,116.8,407.2,116.8,412z"/>
<path style="fill:#30B9D8;" d="M107.2,392c5.6,0,9.6,15.2,9.6,20s-4,8.8-9.6,8.8"/>
<path style="fill:#5EE0EA;" d="M160,412c0,4.8-4,8.8-9.6,8.8s-9.6-4-9.6-8.8s4-20,9.6-20S160,407.2,160,412z"/>
<path style="fill:#30B9D8;" d="M150.4,392c5.6,0,9.6,15.2,9.6,20s-4,8.8-9.6,8.8"/>
<path style="fill:#5EE0EA;" d="M203.2,412c0,4.8-4,8.8-9.6,8.8s-9.6-4-9.6-8.8s4-20,9.6-20C198.4,392,203.2,407.2,203.2,412z"/>
<path style="fill:#30B9D8;" d="M193.6,392c4.8,0,9.6,15.2,9.6,20s-4,8.8-9.6,8.8"/>
<path style="fill:#5EE0EA;" d="M246.4,412c0,4.8-4,8.8-9.6,8.8s-9.6-4-9.6-8.8s4-20,9.6-20C241.6,392,246.4,407.2,246.4,412z"/>
<path style="fill:#30B9D8;" d="M236.8,392c5.6,0,9.6,15.2,9.6,20s-4,8.8-9.6,8.8"/>
<path style="fill:#5EE0EA;" d="M73.6,457.6c0,4.8-4,8.8-9.6,8.8s-9.6-4-9.6-8.8s4-20,9.6-20C68.8,437.6,73.6,452.8,73.6,457.6z"/>
<path style="fill:#30B9D8;" d="M64,437.6c5.6,0,9.6,15.2,9.6,20s-4,8.8-9.6,8.8"/>
<path style="fill:#5EE0EA;" d="M116.8,457.6c0,4.8-4,8.8-9.6,8.8s-9.6-4-9.6-8.8s4-20,9.6-20C112,437.6,116.8,452.8,116.8,457.6z"/>
<path style="fill:#30B9D8;" d="M107.2,437.6c5.6,0,9.6,15.2,9.6,20s-4,8.8-9.6,8.8"/>
<path style="fill:#5EE0EA;" d="M160,457.6c0,4.8-4,8.8-9.6,8.8s-9.6-4-9.6-8.8s4-20,9.6-20S160,452.8,160,457.6z"/>
<path style="fill:#30B9D8;" d="M150.4,437.6c5.6,0,9.6,15.2,9.6,20s-4,8.8-9.6,8.8"/>
<path style="fill:#5EE0EA;" d="M203.2,457.6c0,4.8-4,8.8-9.6,8.8s-9.6-4-9.6-8.8s4-20,9.6-20C198.4,437.6,203.2,452.8,203.2,457.6z"
	/>
<path style="fill:#30B9D8;" d="M193.6,437.6c4.8,0,9.6,15.2,9.6,20s-4,8.8-9.6,8.8"/>
<path style="fill:#5EE0EA;" d="M246.4,457.6c0,4.8-4,8.8-9.6,8.8s-9.6-4-9.6-8.8s4-20,9.6-20C241.6,437.6,246.4,452.8,246.4,457.6z"
	/>
<path style="fill:#30B9D8;" d="M236.8,437.6c5.6,0,9.6,15.2,9.6,20s-4,8.8-9.6,8.8"/>
<path style="fill:#5EE0EA;" d="M289.6,366.4c0,4.8-4,8.8-9.6,8.8c-4.8,0-9.6-4-9.6-8.8s4-20,9.6-20S289.6,361.6,289.6,366.4z"/>
<path style="fill:#30B9D8;" d="M280,346.4c5.6,0,9.6,15.2,9.6,20s-4,8.8-9.6,8.8"/>
<path style="fill:#5EE0EA;" d="M332.8,366.4c0,4.8-4,8.8-9.6,8.8s-9.6-4-9.6-8.8s4-20,9.6-20S332.8,361.6,332.8,366.4z"/>
<path style="fill:#30B9D8;" d="M323.2,346.4c5.6,0,9.6,15.2,9.6,20s-4,8.8-9.6,8.8"/>
<path style="fill:#5EE0EA;" d="M376,366.4c0,4.8-4,8.8-9.6,8.8c-4.8,0-9.6-4-9.6-8.8s4-20,9.6-20S376,361.6,376,366.4z"/>
<path style="fill:#30B9D8;" d="M366.4,346.4c5.6,0,9.6,15.2,9.6,20s-4,8.8-9.6,8.8"/>
<path style="fill:#5EE0EA;" d="M419.2,366.4c0,4.8-4,8.8-9.6,8.8s-9.6-4-9.6-8.8s4-20,9.6-20S419.2,361.6,419.2,366.4z"/>
<path style="fill:#30B9D8;" d="M409.6,346.4c5.6,0,9.6,15.2,9.6,20s-4,8.8-9.6,8.8"/>
<path style="fill:#5EE0EA;" d="M462.4,366.4c0,4.8-4,8.8-9.6,8.8s-9.6-4-9.6-8.8s4-20,9.6-20S462.4,361.6,462.4,366.4z"/>
<path style="fill:#30B9D8;" d="M452.8,346.4c5.6,0,9.6,15.2,9.6,20s-4,8.8-9.6,8.8"/>
<path style="fill:#5EE0EA;" d="M289.6,412c0,4.8-4,8.8-9.6,8.8c-4.8,0-9.6-4-9.6-8.8s4.8-20,9.6-20C285.6,392,289.6,407.2,289.6,412
	z"/>
<path style="fill:#30B9D8;" d="M280,392c5.6,0,9.6,15.2,9.6,20s-4,8.8-9.6,8.8"/>
<path style="fill:#5EE0EA;" d="M332.8,412c0,4.8-4,8.8-9.6,8.8s-9.6-4-9.6-8.8s4-20,9.6-20S332.8,407.2,332.8,412z"/>
<path style="fill:#30B9D8;" d="M323.2,392c5.6,0,9.6,15.2,9.6,20s-4,8.8-9.6,8.8"/>
<path style="fill:#5EE0EA;" d="M376,412c0,4.8-4,8.8-9.6,8.8c-4.8,0-9.6-4-9.6-8.8s4-20,9.6-20S376,407.2,376,412z"/>
<path style="fill:#30B9D8;" d="M366.4,392c5.6,0,9.6,15.2,9.6,20s-4,8.8-9.6,8.8"/>
<path style="fill:#5EE0EA;" d="M419.2,412c0,4.8-4,8.8-9.6,8.8s-9.6-4-9.6-8.8s4-20,9.6-20S419.2,407.2,419.2,412z"/>
<path style="fill:#30B9D8;" d="M409.6,392c5.6,0,9.6,15.2,9.6,20s-4,8.8-9.6,8.8"/>
<path style="fill:#5EE0EA;" d="M462.4,412c0,4.8-4,8.8-9.6,8.8s-9.6-4-9.6-8.8s4.8-20,9.6-20C458.4,392,462.4,407.2,462.4,412z"/>
<path style="fill:#30B9D8;" d="M452.8,392c5.6,0,9.6,15.2,9.6,20s-4,8.8-9.6,8.8"/>
<path style="fill:#5EE0EA;" d="M289.6,457.6c0,4.8-4,8.8-9.6,8.8c-4.8,0-9.6-4-9.6-8.8s4-20,9.6-20S289.6,452.8,289.6,457.6z"/>
<path style="fill:#30B9D8;" d="M280,437.6c5.6,0,9.6,15.2,9.6,20s-4,8.8-9.6,8.8"/>
<path style="fill:#5EE0EA;" d="M332.8,457.6c0,4.8-4,8.8-9.6,8.8s-9.6-4-9.6-8.8s4-20,9.6-20S332.8,452.8,332.8,457.6z"/>
<path style="fill:#30B9D8;" d="M323.2,437.6c5.6,0,9.6,15.2,9.6,20s-4,8.8-9.6,8.8"/>
<path style="fill:#5EE0EA;" d="M376,457.6c0,4.8-4,8.8-9.6,8.8c-4.8,0-9.6-4-9.6-8.8s4-20,9.6-20S376,452.8,376,457.6z"/>
<path style="fill:#30B9D8;" d="M366.4,437.6c5.6,0,9.6,15.2,9.6,20s-4,8.8-9.6,8.8"/>
<path style="fill:#5EE0EA;" d="M419.2,457.6c0,4.8-4,8.8-9.6,8.8s-9.6-4-9.6-8.8s4-20,9.6-20S419.2,452.8,419.2,457.6z"/>
<path style="fill:#30B9D8;" d="M409.6,437.6c5.6,0,9.6,15.2,9.6,20s-4,8.8-9.6,8.8"/>
<path style="fill:#5EE0EA;" d="M462.4,457.6c0,4.8-4,8.8-9.6,8.8s-9.6-4-9.6-8.8s4-20,9.6-20S462.4,452.8,462.4,457.6z"/>
<path style="fill:#30B9D8;" d="M452.8,437.6c5.6,0,9.6,15.2,9.6,20s-4,8.8-9.6,8.8"/>
<g>
</g>
<g>
</g>
<g>
</g>
<g>
</g>
<g>
</g>
<g>
</g>
<g>
</g>
<g>
</g>
<g>
</g>
<g>
</g>
<g>
</g>
<g>
</g>
<g>
</g>
<g>
</g>
<g>
</g>
</svg>
